<svg xmlns="http://www.w3.org/2000/svg" xmlns:xlink="http://www.w3.org/1999/xlink" preserveAspectRatio="xMidYMid" width="2228" height="589" viewBox="0 0 2228 589">
  <defs>
    <style>
      .cls-1 {
        fill: #ffa200;
      }

      .cls-2 {
        fill: #000;
      }

      .cls-2, .cls-3 {
        fill-rule: evenodd;
      }

      .cls-3 {
        fill: #f0f0f0;
      }
    </style>
  </defs>
  <rect width="589" height="589" rx="135" ry="135" class="cls-1"/>
  <path d="M173.150,172.817 L157.637,172.817 L98.128,175.106 L98.128,188.585 C105.757,189.944 111.646,191.597 115.803,193.544 C119.955,195.495 123.051,198.463 125.085,202.445 C127.120,206.430 128.304,211.727 128.646,218.339 C128.983,224.952 129.154,233.686 129.154,244.534 L129.154,355.414 C129.154,367.283 128.646,376.014 127.628,381.608 C126.611,387.203 125.085,391.360 123.051,394.070 C121.016,396.784 118.600,398.902 115.803,400.428 C113.005,401.953 108.384,403.734 101.943,405.768 L101.943,418.230 L201.633,418.230 L201.633,405.768 C195.359,404.075 190.654,402.422 187.519,400.809 C184.380,399.200 181.964,397.503 180.271,395.723 C178.574,393.943 177.176,391.614 176.075,388.729 C174.970,385.848 174.168,381.863 173.659,376.776 C173.150,371.690 172.896,364.315 172.896,354.651 L172.896,259.284 C172.896,251.825 174.505,244.875 177.728,238.430 C180.947,231.989 185.739,225.802 192.097,219.865 C198.455,213.933 204.685,209.399 210.789,206.260 C216.892,203.124 223.417,201.555 230.371,201.555 C235.286,201.555 239.693,202.024 243.595,202.953 C247.493,203.887 250.883,205.286 253.768,207.150 C256.649,209.017 259.490,211.727 262.287,215.288 C265.085,218.848 267.373,223.513 269.154,229.275 C270.934,235.041 272.245,242.670 273.095,252.163 C273.942,261.660 274.367,273.951 274.367,289.038 L274.367,355.668 C274.367,367.200 273.815,375.803 272.714,381.481 C271.609,387.164 270.083,391.360 268.136,394.070 C266.185,396.784 263.769,398.902 260.888,400.428 C258.004,401.953 253.259,403.734 246.647,405.768 L246.647,418.230 L346.592,418.230 L346.592,405.768 C338.963,403.734 333.535,401.743 330.316,399.792 C327.093,397.845 324.677,395.512 323.068,392.798 C321.455,390.088 320.227,386.273 319.380,381.354 C318.530,376.439 318.109,367.538 318.109,354.651 L318.109,261.827 C318.109,253.013 319.635,245.340 322.687,238.812 C325.738,232.287 330.697,225.802 337.564,219.357 C344.430,212.915 350.788,208.338 356.637,205.624 C362.487,202.914 368.801,201.555 375.584,201.555 C382.025,201.555 387.195,202.234 391.097,203.589 C394.995,204.948 398.384,206.812 401.269,209.184 C404.150,211.560 406.737,214.358 409.026,217.576 C411.315,220.799 413.262,225.206 414.875,230.801 C416.484,236.396 417.672,243.898 418.435,253.307 C419.198,262.717 419.580,274.630 419.580,289.038 L419.580,355.668 C419.580,367.200 419.027,375.803 417.927,381.481 C416.822,387.164 415.296,391.360 413.349,394.070 C411.398,396.784 408.982,398.902 406.101,400.428 C403.216,401.953 398.472,403.734 391.860,405.768 L391.860,418.230 L491.805,418.230 L491.805,405.768 C484.175,403.734 478.747,401.743 475.529,399.792 C472.306,397.845 469.890,395.512 468.281,392.798 C466.667,390.088 465.440,386.273 464.593,381.354 C463.743,376.439 463.322,367.538 463.322,354.651 L463.322,258.775 C463.322,241.315 462.006,227.411 459.380,217.068 C456.749,206.728 452.597,198.121 446.918,191.255 C441.236,184.389 434.286,179.302 426.065,175.996 C417.839,172.690 408.048,171.037 396.692,171.037 C387.195,171.037 378.337,172.690 370.116,175.996 C361.890,179.302 353.840,184.007 345.956,190.111 C338.072,196.214 327.773,205.711 315.057,218.594 C310.988,202.489 303.613,190.536 292.932,182.736 C282.251,174.939 268.430,171.037 251.479,171.037 C245.884,171.037 240.416,171.717 235.076,173.072 C229.735,174.431 224.013,176.676 217.910,179.811 C211.806,182.950 205.488,187.103 198.963,192.272 C192.434,197.446 184.086,205.115 173.913,215.288 L170.353,214.270 L173.150,172.817 Z" class="cls-2"/>
  <path d="M2109.789,527.318 C2096.829,564.772 2080.167,577.446 2045.704,577.446 C2043.710,577.446 2033.599,577.304 2031.748,576.877 L2031.748,548.822 C2033.599,549.249 2039.865,549.392 2042.001,549.392 C2056.670,549.392 2064.217,543.838 2068.205,529.881 C2068.205,529.454 2070.341,521.906 2070.198,521.479 L2016.510,370.382 L2055.245,370.382 L2090.848,491.146 L2091.418,491.146 L2127.020,370.382 L2164.332,370.382 L2109.789,527.318 ZM1915.404,578.301 C1878.092,578.301 1851.319,559.218 1847.759,532.730 L1882.934,532.730 C1886.779,544.265 1899.738,552.097 1916.543,552.097 C1939.613,552.097 1952.857,539.138 1952.857,519.913 L1952.857,494.421 L1952.003,494.421 C1944.170,510.656 1926.369,521.479 1904.723,521.479 C1867.411,521.479 1842.632,492.285 1842.632,445.290 C1842.632,397.582 1866.842,367.818 1905.435,367.818 C1926.939,367.818 1944.313,378.926 1953.000,396.300 L1953.569,396.300 L1953.569,370.382 L1988.318,370.382 L1988.318,518.916 C1988.318,554.946 1959.408,578.301 1915.404,578.301 ZM1915.546,397.013 C1893.188,397.013 1878.947,415.811 1878.947,445.432 C1878.947,475.338 1893.188,493.282 1915.546,493.282 C1938.189,493.282 1952.857,474.911 1952.857,445.432 C1952.857,416.095 1938.189,397.013 1915.546,397.013 ZM1778.128,433.470 L1778.128,521.337 L1742.667,521.337 L1742.667,370.382 L1776.704,370.382 L1776.704,396.728 L1777.416,396.728 C1782.542,378.357 1795.787,367.818 1813.588,367.818 C1818.145,367.818 1822.132,368.673 1824.696,369.243 L1824.696,401.285 C1821.705,400.146 1816.294,399.291 1810.312,399.291 C1790.232,399.291 1778.128,412.250 1778.128,433.470 ZM1667.907,495.133 L1667.195,495.133 C1659.220,513.504 1643.982,524.042 1621.054,524.042 C1588.300,524.042 1567.508,502.823 1567.508,467.933 L1567.508,370.382 L1602.968,370.382 L1602.968,460.812 C1602.968,482.459 1613.507,494.136 1633.444,494.136 C1653.951,494.136 1666.626,479.610 1666.626,457.679 L1666.626,370.382 L1702.086,370.382 L1702.086,521.337 L1667.907,521.337 L1667.907,495.133 ZM1490.900,315.839 L1526.360,315.839 L1526.360,521.337 L1490.900,521.337 L1490.900,315.839 ZM1412.583,315.839 L1448.043,315.839 L1448.043,521.337 L1412.583,521.337 L1412.583,315.839 ZM1337.253,497.269 L1336.541,497.269 C1327.854,513.647 1308.914,523.758 1289.546,523.758 C1260.352,523.758 1239.133,505.387 1239.133,478.186 C1239.133,451.413 1259.782,435.321 1296.524,433.042 L1336.399,430.764 L1336.399,419.941 C1336.399,404.133 1325.718,395.019 1308.201,395.019 C1291.397,395.019 1280.716,403.136 1278.438,415.668 L1245.541,415.668 C1247.107,387.471 1271.175,367.249 1309.626,367.249 C1347.079,367.249 1371.432,387.044 1371.432,417.377 L1371.432,521.337 L1337.253,521.337 L1337.253,497.269 ZM1336.399,453.834 L1301.508,455.970 C1284.419,457.110 1274.593,464.800 1274.593,476.762 C1274.593,489.152 1284.846,496.985 1300.227,496.985 C1320.306,496.985 1336.399,483.598 1336.399,465.369 L1336.399,453.834 ZM1207.888,53.523 L1321.901,53.523 L1321.901,80.134 L1239.382,80.134 L1239.382,127.741 L1317.385,127.741 L1317.385,152.766 L1239.382,152.766 L1239.382,203.059 L1321.901,203.059 L1321.901,229.670 L1207.888,229.670 L1207.888,53.523 ZM1211.370,397.725 L1182.888,397.725 L1182.888,476.193 C1182.888,488.582 1188.584,494.279 1201.117,494.279 C1204.392,494.279 1208.949,493.994 1211.228,493.567 L1211.228,520.625 C1207.383,521.479 1200.404,522.049 1192.857,522.049 C1160.245,522.049 1147.428,510.514 1147.428,481.177 L1147.428,397.725 L1125.782,397.725 L1125.782,370.382 L1147.428,370.382 L1147.428,335.064 L1182.888,335.064 L1182.888,370.382 L1211.370,370.382 L1211.370,397.725 ZM1123.791,229.670 L1092.419,229.670 L1092.419,80.134 L1039.685,80.134 L1039.685,53.523 L1176.403,53.523 L1176.403,80.134 L1123.791,80.134 L1123.791,229.670 ZM1011.374,229.670 L996.359,184.138 L931.540,184.138 L916.525,229.670 L884.055,229.670 L946.555,53.523 L982.077,53.523 L1044.577,229.670 L1011.374,229.670 ZM964.377,84.651 L963.522,84.651 L938.864,159.846 L988.913,159.846 L964.377,84.651 ZM924.136,521.337 L891.097,521.337 L891.097,375.509 L890.100,375.509 L830.715,519.628 L805.651,519.628 L746.266,375.509 L745.269,375.509 L745.269,521.337 L712.087,521.337 L712.087,315.839 L754.668,315.839 L817.613,470.923 L818.752,470.923 L881.698,315.839 L924.136,315.839 L924.136,521.337 ZM786.896,232.600 C735.505,232.600 703.522,197.688 703.522,140.925 C703.522,85.017 735.383,50.593 786.286,50.593 C826.325,50.593 856.599,74.275 862.336,109.553 L830.354,109.553 C824.372,89.289 808.015,77.326 786.408,77.326 C754.670,77.326 735.749,100.886 735.749,140.559 C735.749,181.086 755.524,205.866 787.263,205.866 C813.874,205.866 832.307,189.021 832.795,164.362 L832.917,161.433 L790.437,161.433 L790.437,137.385 L863.679,137.385 L863.679,156.184 C863.679,203.913 835.114,232.600 786.896,232.600 ZM1033.505,367.249 C1076.370,367.249 1103.144,397.013 1103.144,442.869 L1103.144,454.404 L997.618,454.404 L997.618,456.540 C997.618,480.750 1012.428,496.985 1035.641,496.985 C1052.161,496.985 1064.693,488.725 1068.538,476.193 L1101.719,476.193 C1097.162,504.675 1070.674,524.327 1034.929,524.327 C989.643,524.327 962.300,494.564 962.300,446.429 C962.300,398.721 989.927,367.249 1033.505,367.249 ZM1068.396,431.049 C1067.683,409.687 1054.012,394.734 1033.647,394.734 C1013.710,394.734 999.327,409.972 997.902,431.049 L1068.396,431.049 Z" class="cls-3"/>
</svg>
